<svg xmlns="http://www.w3.org/2000/svg" viewBox="0 0 1024 1024">
  <!-- Background -->
  <rect x="64" y="64" width="896" height="896" rx="240" fill="#362F4F"/>

  <!-- Bold V -->
  <path
    d="M260 260
       L410 780
       Q430 840 512 840
       Q594 840 614 780
       L764 260
       Q780 210 730 190
       Q680 170 660 220
       L512 660
       L364 220
       Q344 170 294 190
       Q244 210 260 260Z"
    fill="#E4FF30"
  />

  <!-- Increasing upward arc: more rise as it moves right -->
  <circle cx="600" cy="560" r="14" fill="#5B23FF"/>
  <circle cx="616" cy="492" r="18" fill="#4D3DFF"/>
  <circle cx="652" cy="420" r="24" fill="#3A5BFF"/>
  <circle cx="710" cy="345" r="30" fill="#1E76FF"/>
  <circle cx="790" cy="270" r="24" fill="#008BFF"/>
  <circle cx="870" cy="210" r="18" fill="#00A0FF"/>
  <circle cx="930" cy="170" r="14" fill="#00B2FF"/>
</svg>
