<?xml version="1.0" encoding="UTF-8" standalone="no"?>
<svg
   viewBox="0 0 1024 1024"
   version="1.1"
   id="svg7"
   sodipodi:docname="icon-dark.svg"
   inkscape:version="1.4.3 (fcd0343856, 2026-01-01)"
   xmlns:inkscape="http://www.inkscape.org/namespaces/inkscape"
   xmlns:sodipodi="http://sodipodi.sourceforge.net/DTD/sodipodi-0.dtd"
   xmlns="http://www.w3.org/2000/svg"
   xmlns:svg="http://www.w3.org/2000/svg">
  <defs
     id="defs7" />
  <sodipodi:namedview
     id="namedview7"
     pagecolor="#ffffff"
     bordercolor="#000000"
     borderopacity="0.25"
     inkscape:showpageshadow="2"
     inkscape:pageopacity="0.0"
     inkscape:pagecheckerboard="0"
     inkscape:deskcolor="#d1d1d1"
     inkscape:zoom="0.77441406"
     inkscape:cx="511.35435"
     inkscape:cy="512"
     inkscape:window-width="1920"
     inkscape:window-height="1043"
     inkscape:window-x="1920"
     inkscape:window-y="0"
     inkscape:window-maximized="1"
     inkscape:current-layer="svg7" />
  <!-- Background -->
  <rect
     x="64"
     y="64"
     width="896"
     height="896"
     rx="240"
     fill="#FFF7D1"
     id="rect1" />
  <!-- Bold V -->
  <path
     d="M260 260        L410 780        Q430 840 512 840        Q594 840 614 780        L764 260        Q780 210 730 190        Q680 170 660 220        L512 660        L364 220        Q344 170 294 190        Q244 210 260 260Z"
     fill="#563A9C"
     id="path1" />
  <!-- Increasing upward arc: more rise as it moves right -->
  <circle
     cx="600"
     cy="560"
     r="14"
     fill="#563A9C"
     id="circle1" />
  <circle
     cx="616"
     cy="477.79572"
     r="18"
     fill="#5f3fb0"
     id="circle2" />
  <circle
     cx="701.06934"
     cy="456.15637"
     r="24"
     fill="#6a42c2"
     id="circle3" />
  <circle
     cx="791.35181"
     cy="395.36066"
     r="30"
     fill="#7a52e6"
     id="circle4" />
  <circle
     cx="857.14758"
     cy="311.32156"
     r="24"
     fill="#8b5dff"
     id="circle5" />
  <circle
     cx="907.44769"
     cy="235.82597"
     r="18"
     fill="#9a72ff"
     id="circle6" />
  <circle
     cx="930"
     cy="170"
     r="14"
     fill="#AA88FF"
     id="circle7" />
</svg>
